<svg width="24" height="24" xmlns="http://www.w3.org/2000/svg"><g fill="none" fill-rule="evenodd"><path d="M0 0h24v24H0z"/><g fill-rule="nonzero"><path d="m12.315.066.64 1.202c.144.222.3.419.484.602a16.803 16.803 0 0 1 1.503 1.7c1.085 1.424 1.817 3.007 2.34 4.718.313 1.045.483 2.118.496 3.202.053 3.242-1.059 6.026-3.3 8.34a9.524 9.524 0 0 1-1.177 1.006c-.222 0-.327-.17-.418-.327a2.691 2.691 0 0 1-.327-.941 4.548 4.548 0 0 1-.105-1.19v-.183c-.018-.039-.214-18.037-.136-18.13Z" fill="#599636"/><path d="M12.315.026c-.026-.053-.053-.013-.079.013.013.262-.079.496-.222.72-.157.221-.366.392-.575.575-1.162 1.006-2.077 2.222-2.81 3.581-.975 1.83-1.477 3.791-1.62 5.856-.065.745.236 3.372.47 4.13.64 2.014 1.791 3.7 3.281 5.164.366.353.758.68 1.163.994.117 0 .13-.105.157-.183.052-.167.091-.338.118-.51l.262-1.96-.145-18.38Z" fill="#6CAC48"/><path d="M12.955 21.632c.027-.3.17-.549.327-.797a.825.825 0 0 1-.366-.34 2.426 2.426 0 0 1-.195-.43c-.183-.55-.222-1.126-.274-1.687v-.34c-.065.053-.079.497-.079.563a13.027 13.027 0 0 1-.235 1.765c-.04.235-.066.47-.21.68 0 .025 0 .052.012.09.236.694.3 1.4.34 2.119v.262c0 .314-.013.248.248.353.105.039.222.052.327.13.078 0 .091-.065.091-.118l-.039-.431v-1.203c-.013-.21.026-.418.053-.615Z" fill="#C2BFBF"/></g></g></svg>